<svg width="255" height="255" viewBox="0 0 255 255" fill="none" xmlns="http://www.w3.org/2000/svg">
<path d="M250.82 50.1639H54.3443C53.1899 50.1639 52.2541 51.0997 52.2541 52.2541V98.2377C52.2541 99.3921 53.1899 100.328 54.3443 100.328H250.82C251.974 100.328 252.91 99.3921 252.91 98.2377V52.2541C252.91 51.0997 251.974 50.1639 250.82 50.1639Z" fill="#94A3B8" stroke="white" stroke-width="4.18033"/>
<path d="M225.738 102.418H29.2623C28.1079 102.418 27.1721 103.354 27.1721 104.508V150.492C27.1721 151.646 28.1079 152.582 29.2623 152.582H225.738C226.892 152.582 227.828 151.646 227.828 150.492V104.508C227.828 103.354 226.892 102.418 225.738 102.418Z" fill="#475569" stroke="white" stroke-width="4.18033"/>
<path d="M200.656 154.672H4.18033C3.02596 154.672 2.09016 155.608 2.09016 156.762V202.746C2.09016 203.9 3.02596 204.836 4.18033 204.836H200.656C201.81 204.836 202.746 203.9 202.746 202.746V156.762C202.746 155.608 201.81 154.672 200.656 154.672Z" fill="#1E293B" stroke="white" stroke-width="4.18033"/>
<path d="M196.475 98.2377H96.1475V106.598H196.475V98.2377Z" fill="#475569"/>
<path d="M165.123 150.492H64.7951V158.852H165.123V150.492Z" fill="#1E293B"/>
</svg>
